<svg id="Layer_1" enable-background="new 0 0 512.033 512.033" height="512" viewBox="0 0 512.033 512.033" width="512" xmlns="http://www.w3.org/2000/svg"><path d="m470.245 107.775 41.788-41.788-65.986-65.987-41.788 41.788-33.575-33.575-41.042 41.043-22.387-22.387-76.43 76.43 55.962 55.962-127.527 127.526-55.962-55.962-76.43 76.43 22.387 22.387-41.042 41.042 33.575 33.575-41.788 41.788 65.986 65.986 41.788-41.788 33.575 33.575 41.042-41.043 22.387 22.387 76.43-76.43-55.961-55.961 127.526-127.527 55.962 55.962 76.43-76.43-22.387-22.387 41.043-41.042zm-24.198-65.348 23.56 23.56-20.575 20.575-23.56-23.56zm-75.363 8.213 90.709 90.709-19.829 19.829-90.709-90.709zm-304.698 418.966-23.56-23.56 20.575-20.575 23.56 23.56zm75.364-8.213-90.71-90.709 19.829-19.829 90.709 90.709zm63.428-18.656-135.482-135.482 34.003-34.003 135.482 135.482zm-.744-111.177-23.561-23.56 127.527-127.527 23.56 23.56zm204.7-92.779-135.482-135.482 34.003-34.003 135.482 135.482z"/></svg>