<?xml version="1.0"?>
<svg xmlns="http://www.w3.org/2000/svg" id="outline" viewBox="0 0 512 512" width="512" height="512"><path d="M490.53027,208.41064,472,202.23389V196a44,44,0,0,0-87.144-8.63647A67.81885,67.81885,0,0,0,368,184.14758v-8.55066A20.00055,20.00055,0,0,0,364,136H344v.028A39.96343,39.96343,0,0,0,312,120H184a8.00008,8.00008,0,0,0-8,8v56H133.78516l52.99707-92.74365A39.607,39.607,0,0,0,152.39355,32H48a8.00008,8.00008,0,0,0-8,8V64a8.00044,8.00044,0,0,0,6.26465,7.80957l61.165,13.59229-60.041,100.06689A51.85406,51.85406,0,0,0,91.85352,264h77.02l-22.73682,72H65.85645a49.85717,49.85717,0,0,0-47.75391,64.18311l22.23437,74.11572A8.00076,8.00076,0,0,0,48,480H72a8.00008,8.00008,0,0,0,8-8V408h89.64844a48.31643,48.31643,0,0,0,40.87988-22.84326L260.4707,304h39.104a67.70244,67.70244,0,0,0,30.064,80.21729l57.88184,33.76464A44.22886,44.22886,0,0,0,409.78125,424a38.2121,38.2121,0,0,0,22.65332-68.99023l-.24805-47.37989a66.14733,66.14733,0,0,0-6.123-27.52783A68.20128,68.20128,0,0,0,431.89893,256H488a8.00008,8.00008,0,0,0,8-8V216A7.99967,7.99967,0,0,0,490.53027,208.41064ZM455.71,192a28.14607,28.14607,0,0,1,.29,4v10.3855l-16-10.66675V192ZM428,168a27.90226,27.90226,0,0,1,19.56934,8H432a8.00008,8.00008,0,0,0-8,8v16a7.99943,7.99943,0,0,0,3.5625,6.65625l22.38867,14.92566L442.584,240H430.87305a68.42063,68.42063,0,0,0-30.832-45.4978A28.03426,28.03426,0,0,1,428,168Zm-76,8v8h-8.022a40.02655,40.02655,0,0,0,4.67187-8Zm12-24a4,4,0,0,1,0,8H352a40.00029,40.00029,0,0,0-.80518-8Zm-28,8a24.0275,24.0275,0,0,1-24,24H280V136h32A24.0275,24.0275,0,0,1,336,160Zm-96,24V136h24v48Zm-48-48h32v48H192ZM176,71.60645a23.64009,23.64009,0,0,1-3.11035,11.71191l-19.05029,33.33777-36.991-15.8534L126.585,84.5752l29.0752-36.344A23.63875,23.63875,0,0,1,176,71.60645ZM56,57.58252V48h79.355L116.86792,71.10876ZM91.85352,248a35.853,35.853,0,0,1-30.74414-54.29932l47.4309-79.05127,37.30884,15.98951-32.79541,57.39184A8.00055,8.00055,0,0,0,120,200h82.11694A73.405,73.405,0,0,0,177.917,235.36279L173.92627,248ZM53.95215,464,33.42773,395.585a33.78723,33.78723,0,0,1,.87232-21.971l29.7,29.7V464ZM75.314,392,43.64819,360.33423A33.70316,33.70316,0,0,1,65.85645,352H88v40Zm121.58741-15.229A32.20934,32.20934,0,0,1,169.64844,392H104V352h48a8.001,8.001,0,0,0,7.62891-5.59082l33.54589-106.228A57.27317,57.27317,0,0,1,248,200v93.73523ZM312,325.65137a51.89231,51.89231,0,0,1,12.00684-33.1626l26.13867-31.36719-12.291-10.24316-26.13867,31.3667A67.35478,67.35478,0,0,0,307.43652,288H264V200h88v4.11816a65.6977,65.6977,0,0,0,36.51562,59.084A50.01844,50.01844,0,0,1,407.8623,280.2627a52.2766,52.2766,0,0,1-10.11718,11.70507l-34.95117,29.958a8.00022,8.00022,0,0,0,1.32128,13.06738l33.69239,18.71827-22.17774,38.811L337.7002,370.397A51.97666,51.97666,0,0,1,312,325.65137ZM409.78125,408a28.2073,28.2073,0,0,1-14.19824-3.83838l-6.13135-3.57666,22.34424-39.10229,8.77539,4.87524A22.219,22.219,0,0,1,409.78125,408Zm6.40527-100.28613.19873,38.01538-34.44873-19.13843,26.22071-22.47461a68.38247,68.38247,0,0,0,6.88965-6.84241A50.59326,50.59326,0,0,1,416.18652,307.71387ZM395.67188,248.8916A49.78571,49.78571,0,0,1,368,204.11816v-3.92871a52.25224,52.25224,0,0,1,46.82471,63.099A66.294,66.294,0,0,0,395.67188,248.8916ZM480,240H459.81641l8.81-22.02515L480,221.76611Z"/></svg>
