<svg viewBox="0 0 512 512" xmlns="http://www.w3.org/2000/svg"><path d="m240.503906 312.609375h-11.625c-4.148437 0-7.511718 3.363281-7.511718 7.515625s3.363281 7.515625 7.511718 7.515625h11.625c4.148438 0 7.511719-3.363281 7.511719-7.515625s-3.363281-7.515625-7.511719-7.515625zm0 0"/><path d="m283.117188 312.609375h-11.621094c-4.148438 0-7.515625 3.363281-7.515625 7.515625s3.367187 7.515625 7.515625 7.515625h11.621094c4.152343 0 7.515624-3.363281 7.515624-7.515625s-3.363281-7.515625-7.515624-7.515625zm0 0"/><path d="m320.125 306.597656c-3.679688 0-6.742188 2.644532-7.390625 6.140625-3.492187.644531-6.136719 3.707031-6.136719 7.386719 0 4.152344 3.367188 7.515625 7.515625 7.515625h6.011719c4.148438 0 7.515625-3.363281 7.515625-7.515625v-6.011719c0-4.152343-3.367187-7.515625-7.515625-7.515625zm0 0"/><path d="m327.640625 271.496094c0-4.148438-3.367187-7.511719-7.515625-7.511719s-7.515625 3.363281-7.515625 7.511719v11.625c0 4.148437 3.367187 7.511718 7.515625 7.511718s7.515625-3.363281 7.515625-7.511718zm0 0"/><path d="m327.640625 228.878906c0-4.148437-3.367187-7.511718-7.515625-7.511718s-7.515625 3.363281-7.515625 7.511718v11.625c0 4.152344 3.367187 7.515625 7.515625 7.515625s7.515625-3.363281 7.515625-7.515625zm0 0"/><path d="m240.503906 184.359375h-11.621094c-4.152343 0-7.515624 3.363281-7.515624 7.515625s3.363281 7.515625 7.515624 7.515625h11.621094c4.148438 0 7.515625-3.363281 7.515625-7.515625s-3.367187-7.515625-7.515625-7.515625zm0 0"/><path d="m283.121094 184.359375h-11.625c-4.148438 0-7.511719 3.363281-7.511719 7.515625s3.363281 7.515625 7.511719 7.515625h11.625c4.148437 0 7.511718-3.363281 7.511718-7.515625s-3.363281-7.515625-7.511718-7.515625zm0 0"/><path d="m205.402344 191.875c0-4.152344-3.367188-7.515625-7.515625-7.515625h-6.011719c-4.148438 0-7.515625 3.363281-7.515625 7.515625v6.011719c0 4.152343 3.367187 7.515625 7.515625 7.515625 3.679688 0 6.742188-2.644532 7.390625-6.140625 3.492187-.644531 6.136719-3.707031 6.136719-7.386719zm0 0"/><path d="m199.390625 228.882812c0-4.152343-3.367187-7.515624-7.515625-7.515624s-7.515625 3.363281-7.515625 7.515624v11.621094c0 4.152344 3.367187 7.515625 7.515625 7.515625s7.515625-3.363281 7.515625-7.515625zm0 0"/><path d="m191.875 263.984375c-4.148438 0-7.515625 3.363281-7.515625 7.511719v11.625c0 4.152344 3.367187 7.515625 7.515625 7.515625s7.515625-3.363281 7.515625-7.515625v-11.625c0-4.148438-3.367187-7.511719-7.515625-7.511719zm0 0"/><path d="m406 15.03125h12.609375c4.152344 0 7.515625-3.367188 7.515625-7.515625 0-4.152344-3.363281-7.515625-7.515625-7.515625h-12.609375c-4.148438 0-7.515625 3.363281-7.515625 7.515625 0 4.148437 3.367187 7.515625 7.515625 7.515625zm0 0"/><path d="m359.761719 15.03125h12.613281c4.148438 0 7.511719-3.367188 7.511719-7.515625 0-4.152344-3.363281-7.515625-7.511719-7.515625h-12.613281c-4.148438 0-7.511719 3.363281-7.511719 7.515625 0 4.148437 3.363281 7.515625 7.511719 7.515625zm0 0"/><path d="m452.238281 15.03125h12.609375c4.148438 0 7.515625-3.367188 7.515625-7.515625 0-4.152344-3.367187-7.515625-7.515625-7.515625h-12.609375c-4.152343 0-7.515625 3.363281-7.515625 7.515625 0 4.148437 3.363282 7.515625 7.515625 7.515625zm0 0"/><path d="m504.484375 0h-6.011719c-4.148437 0-7.515625 3.363281-7.515625 7.515625 0 3.679687 2.648438 6.742187 6.140625 7.386719.644532 3.492187 3.707032 6.140625 7.386719 6.140625 4.152344 0 7.515625-3.367188 7.515625-7.515625v-6.011719c0-4.152344-3.363281-7.515625-7.515625-7.515625zm0 0"/><path d="m504.484375 84.96875c-4.148437 0-7.515625 3.363281-7.515625 7.515625v12.46875c0 4.148437 3.367188 7.511719 7.515625 7.511719 4.152344 0 7.515625-3.363282 7.515625-7.511719v-12.46875c0-4.152344-3.363281-7.515625-7.515625-7.515625zm0 0"/><path d="m504.484375 39.257812c-4.148437 0-7.515625 3.363282-7.515625 7.515626v12.464843c0 4.152344 3.367188 7.515625 7.515625 7.515625 4.152344 0 7.515625-3.363281 7.515625-7.515625v-12.464843c0-4.152344-3.363281-7.515626-7.515625-7.515626zm0 0"/><path d="m504.484375 130.683594c-4.148437 0-7.515625 3.363281-7.515625 7.515625v12.464843c0 4.152344 3.367188 7.515626 7.515625 7.515626 4.152344 0 7.515625-3.363282 7.515625-7.515626v-12.464843c0-4.152344-3.363281-7.515625-7.515625-7.515625zm0 0"/><path d="m504.484375 176.394531c-4.148437 0-7.515625 3.363281-7.515625 7.515625v.449219h-169.328125v-169.480469c3.429687-.695312 6.011719-3.730468 6.011719-7.363281 0-4.152344-3.367188-7.515625-7.515625-7.515625h-318.621094c-4.152344 0-7.515625 3.363281-7.515625 7.515625l.976562 318.621094c0 4.152343 3.363282 7.515625 7.515626 7.515625 3.632812 0 6.667968-2.582032 7.363281-6.011719h168.503906v169.355469c-3.902344.273437-6.988281 3.515625-6.988281 7.488281 0 4.152344 3.363281 7.515625 7.515625 7.515625h319.597656c4.152344 0 7.515625-3.363281 7.515625-7.515625v-115.890625c0-4.152344-3.363281-7.515625-7.515625-7.515625-4.148437 0-7.515625 3.363281-7.515625 7.515625v108.375h-297.578125v-169.480469c3.429687-.695312 6.011719-3.726562 6.011719-7.363281 0-3.679688-2.644532-6.742188-6.136719-7.386719-.648437-3.496093-3.710937-6.140625-7.390625-6.140625-3.636719 0-6.667969 2.582032-7.363281 6.011719h-169.480469v-297.578125h297.578125v169.480469c-3.429687.695312-6.011719 3.726562-6.011719 7.363281 0 3.679688 2.644532 6.742188 6.136719 7.386719.648437 3.496093 3.710937 6.140625 7.390625 6.140625 3.636719 0 6.667969-2.582032 7.363281-6.011719h169.480469v153.132813c0 4.148437 3.367188 7.511718 7.515625 7.511718 4.152344 0 7.515625-3.363281 7.515625-7.511718v-168.613282c0-4.152344-3.363281-7.515625-7.515625-7.515625zm0 0"/><path d="m.976562 418.609375c0 4.152344 3.363282 7.515625 7.515626 7.515625 4.148437 0 7.515624-3.363281 7.515624-7.515625v-12.609375c0-4.152344-3.367187-7.515625-7.515624-7.515625-4.152344 0-7.515626 3.363281-7.515626 7.515625zm0 0"/><path d="m8.492188 379.886719c4.148437 0 7.515624-3.363281 7.515624-7.511719v-12.613281c0-4.148438-3.367187-7.511719-7.515624-7.511719-4.152344 0-7.515626 3.363281-7.515626 7.511719v12.613281c0 4.148438 3.363282 7.511719 7.515626 7.511719zm0 0"/><path d="m.976562 464.847656c0 4.148438 3.363282 7.511719 7.515626 7.511719 4.148437 0 7.515624-3.363281 7.515624-7.511719v-12.613281c0-4.148437-3.367187-7.511719-7.515624-7.511719-4.152344 0-7.515626 3.363282-7.515626 7.511719zm0 0"/><path d="m15.878906 497.097656c-.644531-3.492187-3.707031-6.140625-7.386718-6.140625-4.152344 0-7.515626 3.367188-7.515626 7.515625v6.011719c0 4.152344 3.363282 7.515625 7.515626 7.515625h6.011718c4.148438 0 7.515625-3.363281 7.515625-7.515625 0-3.679687-2.648437-6.742187-6.140625-7.386719zm0 0"/><path d="m151.640625 496.96875h-12.46875c-4.148437 0-7.511719 3.367188-7.511719 7.515625 0 4.152344 3.363282 7.515625 7.511719 7.515625h12.46875c4.152344 0 7.515625-3.363281 7.515625-7.515625 0-4.148437-3.363281-7.515625-7.515625-7.515625zm0 0"/><path d="m105.929688 496.96875h-12.46875c-4.148438 0-7.515626 3.367188-7.515626 7.515625 0 4.152344 3.367188 7.515625 7.515626 7.515625h12.46875c4.148437 0 7.511718-3.363281 7.511718-7.515625 0-4.148437-3.363281-7.515625-7.511718-7.515625zm0 0"/><path d="m60.214844 496.96875h-12.464844c-4.152344 0-7.515625 3.367188-7.515625 7.515625 0 4.152344 3.363281 7.515625 7.515625 7.515625h12.464844c4.152344 0 7.515625-3.363281 7.515625-7.515625 0-4.148437-3.363281-7.515625-7.515625-7.515625zm0 0"/></svg>